<svg width="59" height="55" viewBox="0 0 59 55" fill="none" xmlns="http://www.w3.org/2000/svg">
<g filter="url(#filter0_d_12_15)">
<path d="M14.9634 20.0996L14.9636 20.0998L28.3798 39.9H41.1151C46.2627 39.9 49.4773 39.8862 51.3969 39.8496C52.3578 39.8313 52.9889 39.8073 53.3742 39.777C53.4321 39.7725 53.4835 39.7678 53.5288 39.7632C53.4951 39.7121 53.4569 39.6542 53.4142 39.5898C53.2238 39.3023 52.9459 38.886 52.5927 38.3588C51.8864 37.3045 50.8796 35.8077 49.6698 34.0128C47.2504 30.4231 44.0199 25.6417 40.7602 20.8247C34.2371 11.1854 27.6063 1.41745 27.1127 0.754269L27.1126 0.754288L27.1104 0.751122L26.7493 0.249992H14.0717C10.0978 0.249992 6.89238 0.268322 4.68096 0.298092C3.57499 0.312984 2.71894 0.330715 2.14007 0.350395C1.95008 0.356853 1.7911 0.363483 1.66357 0.37022C1.68439 0.402531 1.7068 0.43718 1.73079 0.474148C1.91082 0.751503 2.17677 1.1547 2.51974 1.67056C3.20553 2.70205 4.19754 4.18141 5.42199 5.99973C7.8708 9.63624 11.2484 14.6272 14.9634 20.0996Z" fill="#D3F500" stroke="white" stroke-width="0.5"/>
<path d="M30.3809 0.350399C30.2058 0.356474 30.0576 0.362701 29.9369 0.369019C30.0255 0.504555 30.1403 0.678371 30.2784 0.886135C30.6206 1.40096 31.1041 2.12174 31.6819 2.97926C32.8374 4.69418 34.3691 6.95459 35.8996 9.20482C37.4302 11.4551 38.9593 13.6948 40.1096 15.3684C40.6848 16.2053 41.1649 16.9001 41.5031 17.3839C41.6392 17.5786 41.7519 17.7385 41.8383 17.8594C41.9388 17.7166 42.0744 17.521 42.2406 17.2796C42.5896 16.7725 43.0715 16.0655 43.6417 15.225C44.7819 13.5442 46.2741 11.3313 47.7592 9.12119C49.2444 6.91105 50.7223 4.70391 51.8341 3.03453C52.39 2.19977 52.8541 1.49981 53.1817 1.00126C53.3456 0.751888 53.475 0.553516 53.5644 0.414082C53.5727 0.40123 53.5806 0.388912 53.5881 0.377132C53.3636 0.342173 52.9472 0.315031 52.1943 0.295753C50.5873 0.254608 47.5199 0.250002 41.717 0.250002C38.0544 0.250002 34.9944 0.268333 32.8556 0.298103C31.786 0.312992 30.9481 0.330725 30.3809 0.350399ZM53.6962 0.202618C53.696 0.202816 53.6956 0.203573 53.695 0.204821C53.696 0.203037 53.6963 0.202362 53.6962 0.202618Z" fill="#D3F500" stroke="white" stroke-width="0.5"/>
<path d="M10.6061 26.5938L10.6056 26.5945C8.96714 29.0311 7.40791 31.3267 7.1562 31.6787L7.15553 31.6797C6.70205 32.3078 5.27798 34.4073 3.96422 36.3659C3.30805 37.3442 2.6806 38.2855 2.21735 38.9877C1.99022 39.332 1.80297 39.6182 1.67127 39.8229C1.81663 39.8283 1.99984 39.8334 2.21849 39.8382C2.83936 39.8519 3.73822 39.8633 4.84829 39.8725C7.06806 39.8908 10.1286 39.9 13.4906 39.9C16.8628 39.9 19.9236 39.8908 22.1411 39.8771C23.25 39.8702 24.1475 39.8622 24.7676 39.8536C24.9724 39.8508 25.1466 39.8479 25.2878 39.845C25.2254 39.7512 25.1514 39.6403 25.0664 39.5134C24.7696 39.0704 24.3404 38.4336 23.8112 37.6499C23.2487 36.8169 22.5735 35.8184 21.8244 34.7106C21.1638 33.7338 20.4458 32.672 19.6969 31.5637C18.0883 29.2077 16.6041 27.0166 15.5065 25.3845C14.9576 24.5685 14.5052 23.8919 14.1821 23.4042C14.0206 23.1605 13.891 22.9634 13.7978 22.8196C13.7088 22.6822 13.6442 22.5803 13.6218 22.5374L13.6177 22.5296L13.6142 22.5215C13.5892 22.4642 13.5599 22.411 13.5303 22.3652C13.5008 22.4042 13.4674 22.4489 13.4303 22.4991C13.2654 22.7225 13.0332 23.0471 12.7509 23.4498C12.1866 24.2546 11.425 25.3668 10.6061 26.5938Z" fill="#D3F500" stroke="white" stroke-width="0.5"/>
<path d="M34.6871 48.5693L34.6872 48.5696C34.8797 49.0878 35.1928 49.4597 35.9112 49.8091C36.6492 50.1681 37.794 50.4928 39.6317 50.9055C39.9211 50.9648 40.1871 51.059 40.4046 51.1743C40.616 51.2864 40.8059 51.4312 40.9125 51.6049C41.0168 51.771 41.1218 51.9762 41.0464 52.2046C41.0111 52.3114 40.944 52.398 40.8701 52.4712C40.7962 52.5443 40.7023 52.6168 40.5952 52.6925L40.5952 52.6925L40.5938 52.6935C40.3738 52.8466 40.0529 52.9358 39.7069 52.9851C39.3531 53.0354 38.9416 53.048 38.5161 53.0268C37.6698 52.9846 36.7338 52.8068 36.0524 52.4964C35.8096 52.3893 35.5807 52.3017 35.4085 52.2481C35.3499 52.2299 35.3012 52.2166 35.2627 52.2079C35.2277 52.2618 35.1826 52.3354 35.1302 52.4247C35.0236 52.6063 34.8907 52.8456 34.7574 53.0992C34.7573 53.0994 34.7572 53.0995 34.7571 53.0996L34.3888 53.8071L34.6409 53.9589C34.9776 54.1479 35.6471 54.3476 36.4381 54.5001C37.2231 54.6515 38.0941 54.75 38.8113 54.75C40.5466 54.75 41.8711 54.3793 42.704 53.7591C43.5204 53.1511 43.8816 52.2932 43.6922 51.2338C43.5918 50.7454 43.3374 50.3559 42.8352 50.0165C42.3202 49.6684 41.5459 49.3743 40.4131 49.1014L40.4121 49.1011C39.1131 48.7824 38.3652 48.5898 37.9451 48.4212C37.7359 48.3372 37.5709 48.2455 37.4623 48.1185C37.341 47.9766 37.316 47.8232 37.316 47.685C37.316 47.4657 37.3585 47.2598 37.4695 47.0821C37.5817 46.9025 37.7495 46.7752 37.958 46.6887C38.3583 46.5226 38.9499 46.4912 39.739 46.5371L39.7415 46.5372C40.1554 46.5654 40.6054 46.6215 41.0006 46.6918C41.3889 46.7608 41.7468 46.8474 41.9633 46.943L41.9633 46.9429L41.9685 46.9453L42.4141 47.1545L42.8021 46.3976L42.802 46.3976L42.8039 46.3941C42.9295 46.1584 43.0192 45.9886 43.08 45.858C43.1427 45.7232 43.1615 45.6563 43.1649 45.6213L43.165 45.6196C43.1663 45.6066 43.1663 45.6065 43.1567 45.5935C43.1336 45.5626 43.0906 45.5236 42.9932 45.4422C42.8422 45.3285 42.5128 45.2055 42.0335 45.0985C41.5636 44.9936 40.9876 44.9119 40.3833 44.861C39.167 44.7586 37.8786 44.7845 37.1312 44.9752C35.1644 45.5023 34.155 47.1431 34.6871 48.5693Z" fill="#D3F500" stroke="white" stroke-width="0.5"/>
<path d="M1.83394 46.7201L1.83403 46.7201L3.63969 46.7751L3.87822 46.7824L3.88204 47.021L3.94431 50.9077L3.94431 50.9077L3.94433 50.909L3.98321 54.5667H5.29245H6.6017L6.64058 50.909L6.6406 50.9077L6.70286 47.021L6.70668 46.7827L6.94485 46.7751L8.6674 46.7201L8.66749 46.7201L10.1274 46.6729V45.8333V44.9833H5.18868H0.25V45.8333V46.6724L1.83394 46.7201Z" fill="#D3F500" stroke="white" stroke-width="0.5"/>
<path d="M11.9137 45.7635L11.9137 45.7637L11.9626 46.5983L13.6637 46.6468L13.6638 46.6468L15.5732 46.7018L15.816 46.7088V46.9517V49.5C15.816 50.6569 15.8062 51.3286 15.7461 51.7513C15.7154 51.9668 15.6696 52.1355 15.5952 52.2785C15.5192 52.4247 15.4221 52.5273 15.3165 52.6207C14.9909 52.9083 14.6171 53.0483 14.1927 53.0291C13.7791 53.0104 13.338 52.8416 12.8635 52.5558L12.8635 52.5558L12.861 52.5543C12.6594 52.4296 12.4595 52.3194 12.3026 52.2436C12.2236 52.2055 12.1599 52.1782 12.1147 52.1621C12.1122 52.1612 12.1098 52.1604 12.1076 52.1596C12.1039 52.1621 12.0998 52.165 12.0954 52.1682C12.0514 52.1997 11.9922 52.2497 11.9203 52.317C11.7778 52.4505 11.6042 52.6346 11.435 52.8289C11.2661 53.0231 11.106 53.2224 10.9897 53.3851C10.9312 53.4669 10.8868 53.5353 10.8581 53.5867C10.855 53.5924 10.8521 53.5976 10.8495 53.6025C10.8503 53.6034 10.851 53.6043 10.8518 53.6052C10.8821 53.6423 10.9342 53.6918 11.0116 53.7511C11.1653 53.8689 11.3882 54.0023 11.6487 54.1324C12.1728 54.394 12.8038 54.6197 13.2534 54.6788L13.2536 54.6788C13.8526 54.7582 14.5746 54.7544 15.248 54.6871C15.9232 54.6196 16.525 54.4906 16.8956 54.3319C17.0406 54.2634 17.2417 54.1214 17.4538 53.9362C17.6636 53.7531 17.8695 53.5406 18.0242 53.3445L18.5343 52.6603L18.5953 48.7261L18.5953 48.7248L18.6731 44.9833H15.2547H11.8672L11.9137 45.7635ZM12.0735 52.1493C12.0684 52.1483 12.0691 52.1488 12.0741 52.1495L12.0735 52.1493ZM10.83 53.6449C10.8301 53.6449 10.8304 53.6441 10.8308 53.6425C10.8302 53.6442 10.83 53.6449 10.83 53.6449Z" fill="#D3F500" stroke="white" stroke-width="0.5"/>
<path d="M31.8783 48.4328L31.8783 48.4325L31.9363 44.9833H30.634H29.3066V47.7033C29.3066 49.3238 29.2605 50.3961 29.1205 51.1218C28.9782 51.8588 28.7301 52.2834 28.2964 52.5538C27.8829 52.8117 27.3001 52.9 26.7505 52.8662C26.1994 52.8323 25.6276 52.6724 25.2331 52.3767L25.2331 52.3767L25.2321 52.376L24.651 51.936L24.5541 51.8626L24.5519 51.7411L24.4897 48.2395L24.4318 44.9833H23.017H21.6274V47.7583C21.6274 51.2893 21.843 52.2757 22.6658 53.2224C23.1766 53.8062 23.6299 54.1545 24.2377 54.365C24.8575 54.5797 25.6573 54.6583 26.8774 54.6583C27.9997 54.6583 28.6729 54.6159 29.1982 54.4662C29.7103 54.3203 30.0979 54.0675 30.6354 53.6018C30.9361 53.3362 31.1474 53.1362 31.3061 52.9229C31.4605 52.7154 31.5698 52.4886 31.6496 52.1669C31.8148 51.5004 31.847 50.4635 31.8783 48.4328Z" fill="#D3F500" stroke="white" stroke-width="0.5"/>
<path d="M44.9137 45.7635L44.9137 45.7637L44.9626 46.5991L46.457 46.6468L46.4571 46.6468L48.159 46.7018L48.4009 46.7096V46.9517V50.875V54.5667H49.8113H51.2243L51.2632 50.909L51.2632 50.9077L51.3255 47.021L51.3293 46.7827L51.5675 46.7751L53.29 46.7201L53.2901 46.7201L54.75 46.6729V45.8333V44.9833H49.8113H44.8672L44.9137 45.7635Z" fill="#D3F500" stroke="white" stroke-width="0.5"/>
</g>
<defs>
<filter id="filter0_d_12_15" x="-4" y="0" width="63" height="63" filterUnits="userSpaceOnUse" color-interpolation-filters="sRGB">
<feFlood flood-opacity="0" result="BackgroundImageFix"/>
<feColorMatrix in="SourceAlpha" type="matrix" values="0 0 0 0 0 0 0 0 0 0 0 0 0 0 0 0 0 0 127 0" result="hardAlpha"/>
<feOffset dy="4"/>
<feGaussianBlur stdDeviation="2"/>
<feComposite in2="hardAlpha" operator="out"/>
<feColorMatrix type="matrix" values="0 0 0 0 0 0 0 0 0 0 0 0 0 0 0 0 0 0 0.25 0"/>
<feBlend mode="normal" in2="BackgroundImageFix" result="effect1_dropShadow_12_15"/>
<feBlend mode="normal" in="SourceGraphic" in2="effect1_dropShadow_12_15" result="shape"/>
</filter>
</defs>
</svg>
