<svg width="83" height="83" viewBox="0 0 83 83" fill="none" xmlns="http://www.w3.org/2000/svg">
<g clip-path="url(#clip0_12_14)" filter="url(#filter0_d_12_14)">
<g filter="url(#filter1_d_12_14)">
<path d="M24.3295 27.4596L24.3296 27.4598L42.6515 54.5H60.066C67.0853 54.5 71.4697 54.4812 74.0884 54.4313C75.3989 54.4063 76.2618 54.3736 76.7901 54.332C76.9391 54.3203 77.058 54.3081 77.1507 54.2959C77.0884 54.2007 77.0091 54.0803 76.9133 53.9358C76.6535 53.5436 76.2746 52.9759 75.7929 52.2569C74.8297 50.8191 73.4566 48.7779 71.807 46.3303C68.5077 41.4352 64.1025 34.915 59.6573 28.3464C50.7635 15.2037 41.7195 1.88078 41.0447 0.974293L41.0424 0.971127L40.5229 0.249996H23.1887C17.7695 0.249996 13.398 0.274994 10.3819 0.315598C8.87358 0.335903 7.70549 0.360096 6.91519 0.386959C6.57247 0.398609 6.30282 0.410698 6.10804 0.423046C6.1574 0.500454 6.21608 0.591541 6.28392 0.696064C6.52968 1.07471 6.89257 1.62486 7.36031 2.32838C8.29563 3.73518 9.64848 5.75266 11.3182 8.23223C14.6576 13.1912 19.2635 19.9972 24.3295 27.4596Z" fill="#D3F500" stroke="white" stroke-width="0.5"/>
<mask id="path-2-inside-1_12_14" fill="white">
<path d="M44.2453 0.225004C44.3868 0.600004 60.9717 25 61.0566 24.925C61.4811 24.475 77.4151 0.750004 77.5283 0.425004C77.6415 0.0250037 76.7076 3.67392e-06 60.8868 3.67392e-06C50.8962 3.67392e-06 44.1887 0.100004 44.2453 0.225004Z"/>
</mask>
<path d="M44.2453 0.225004C44.3868 0.600004 60.9717 25 61.0566 24.925C61.4811 24.475 77.4151 0.750004 77.5283 0.425004C77.6415 0.0250037 76.7076 3.67392e-06 60.8868 3.67392e-06C50.8962 3.67392e-06 44.1887 0.100004 44.2453 0.225004Z" fill="#D3F500"/>
<path d="M44.2453 0.225004L44.7008 0.0187498L44.7074 0.033414L44.7131 0.048475L44.2453 0.225004ZM61.0566 24.925L61.4203 25.2681L61.4047 25.2847L61.3876 25.2997L61.0566 24.925ZM77.5283 0.425004L78.0094 0.561165L78.0054 0.575453L78.0005 0.589477L77.5283 0.425004ZM44.7131 0.048475C44.6979 0.0082607 44.6812 -0.0169743 44.6961 0.00877486C44.7026 0.0199632 44.7137 0.038271 44.7304 0.0651016C44.7634 0.118186 44.8119 0.194184 44.876 0.29293C45.0037 0.489843 45.1879 0.769295 45.4212 1.12031C45.8875 1.82191 46.5466 2.80448 47.3345 3.97373C48.91 6.312 50.9986 9.39417 53.0856 12.4625C55.1726 15.531 57.2576 18.5849 58.826 20.8668C59.6103 22.0079 60.2647 22.955 60.7255 23.6141C60.9561 23.944 61.1369 24.1999 61.2607 24.3713C61.3231 24.4577 61.3684 24.5191 61.3974 24.5567C61.413 24.5769 61.4185 24.5833 61.4172 24.5818C61.4163 24.5808 61.4136 24.5777 61.4095 24.5734C61.406 24.5697 61.3973 24.5606 61.3848 24.5495C61.3779 24.5434 61.3443 24.5129 61.2929 24.4851C61.2626 24.47 61.1781 24.4404 61.1237 24.4298C61.0332 24.4257 60.8274 24.4807 60.7256 24.5503L61.3876 25.2997C61.2855 25.3696 61.0792 25.4247 60.9881 25.4205C60.9332 25.4099 60.848 25.38 60.8168 25.3645C60.7638 25.3358 60.7279 25.3036 60.7184 25.2951C60.692 25.2715 60.6719 25.2486 60.6642 25.2398C60.6443 25.2171 60.6235 25.1907 60.6052 25.1669C60.5664 25.1166 60.5138 25.0451 60.45 24.9568C60.3215 24.7789 60.1372 24.5179 59.9059 24.1871C59.4428 23.5246 58.7865 22.5749 58.0019 21.4332C56.4322 19.1495 54.3462 16.094 52.2587 13.025C50.1712 9.95583 48.0818 6.87238 46.5052 4.53252C45.7169 3.36272 45.0565 2.3781 44.5884 1.67384C44.3545 1.32192 44.1678 1.03878 44.037 0.837106C43.9718 0.736561 43.9191 0.65427 43.8811 0.593029C43.8622 0.562698 43.8453 0.534834 43.8315 0.511211C43.8263 0.50215 43.7971 0.453465 43.7775 0.401532L44.7131 0.048475ZM60.6929 24.5819C60.6803 24.5953 60.6887 24.5871 60.7377 24.5204C60.7776 24.4659 60.8324 24.3894 60.9017 24.2911C61.0401 24.0949 61.2318 23.8186 61.4697 23.4729C61.9453 22.7819 62.6023 21.818 63.3797 20.672C64.9344 18.3803 66.9691 15.363 68.9942 12.3493C71.0193 9.33554 73.0345 6.326 74.5504 4.04981C75.3084 2.91159 75.9411 1.95742 76.3876 1.27799C76.611 0.938066 76.787 0.668138 76.9085 0.478741C76.9695 0.383739 77.0154 0.311017 77.0464 0.26065C77.0621 0.235139 77.0722 0.218174 77.0779 0.208223C77.0942 0.179959 77.0729 0.212523 77.0561 0.260531L78.0005 0.589477C77.9802 0.64764 77.9477 0.701787 77.9451 0.706174C77.9321 0.728875 77.916 0.755631 77.8982 0.784555C77.8622 0.843058 77.8122 0.92206 77.7501 1.01879C77.6256 1.21285 77.4473 1.4864 77.2233 1.82719C76.7751 2.50919 76.1411 3.46537 75.3827 4.6041C73.8658 6.88182 71.8498 9.89259 69.8242 12.907C67.7986 15.9214 65.7631 18.94 64.2073 21.2334C63.4294 22.38 62.771 23.346 62.2935 24.0399C62.0549 24.3866 61.8606 24.6665 61.7189 24.8675C61.6482 24.9677 61.5894 25.05 61.5441 25.1117C61.5079 25.1611 61.4595 25.2266 61.4203 25.2681L60.6929 24.5819ZM77.0472 0.288842C77.0435 0.302026 77.0261 0.366125 77.0438 0.453502C77.0642 0.5542 77.1187 0.628349 77.1698 0.672037C77.235 0.727703 77.2668 0.710382 77.1102 0.681612C76.8365 0.631299 76.2756 0.590648 75.17 0.56234C72.9812 0.506299 68.8011 0.500004 60.8868 0.500004V-0.499996C68.7932 -0.499996 72.9905 -0.493792 75.1956 -0.437333C76.2869 -0.40939 76.9271 -0.368792 77.291 -0.301918C77.4533 -0.272093 77.6631 -0.221836 77.8194 -0.0882404C77.9162 -0.00558816 77.9946 0.110114 78.0239 0.255123C78.0506 0.386812 78.0273 0.497981 78.0094 0.561165L77.0472 0.288842ZM60.8868 0.500004C55.8928 0.500004 51.7208 0.524999 48.8053 0.56558C47.347 0.585878 46.2058 0.610041 45.4341 0.636812C45.047 0.650238 44.7587 0.664133 44.5714 0.678068C44.4753 0.685221 44.418 0.691535 44.3906 0.695841C44.3715 0.698834 44.3891 0.697464 44.4207 0.686736C44.4283 0.684145 44.4932 0.663474 44.5616 0.608287C44.5977 0.579087 44.6677 0.51425 44.7107 0.404651C44.7608 0.276746 44.7545 0.137521 44.7008 0.0187498L43.7898 0.431257C43.7351 0.310533 43.7288 0.169358 43.7797 0.0395056C43.8235 -0.07204 43.895 -0.138821 43.9336 -0.169962C44.0068 -0.22903 44.0798 -0.253569 44.0987 -0.260015C44.1529 -0.278453 44.2063 -0.28748 44.2356 -0.292086C44.3051 -0.302978 44.3958 -0.31163 44.4972 -0.319174C44.705 -0.334633 45.0094 -0.349059 45.3994 -0.362586C46.1816 -0.389721 47.331 -0.413996 48.7914 -0.434323C51.7132 -0.474992 55.8902 -0.499996 60.8868 -0.499996V0.500004Z" fill="white" mask="url(#path-2-inside-1_12_14)"/>
<path d="M18.3872 36.2138L18.3867 36.2145C16.152 39.5377 14.0268 42.6667 13.6845 43.1454L13.6838 43.1463C13.0643 44.0045 11.1214 46.869 9.33026 49.5393C8.43541 50.8734 7.57966 52.1571 6.94777 53.115C6.63175 53.5941 6.37216 53.9909 6.19177 54.2716C6.16499 54.3133 6.14003 54.3523 6.11695 54.3885C6.33465 54.3981 6.63922 54.4072 7.02321 54.4157C7.8705 54.4344 9.09671 54.45 10.6106 54.4625C13.6379 54.4875 17.8116 54.5 22.3962 54.5C26.9949 54.5 31.1689 54.4875 34.193 54.4688C35.7052 54.4594 36.9294 54.4484 37.7753 54.4367C38.1405 54.4317 38.4344 54.4265 38.6504 54.4213C38.5496 54.2691 38.4176 54.0712 38.2569 53.8313C37.8521 53.2271 37.2669 52.3586 36.5452 51.2899C35.7779 50.1537 34.8568 48.7916 33.8349 47.2803C32.9344 45.9487 31.9556 44.5012 30.9347 42.9905C28.7412 39.7778 26.7174 36.79 25.2206 34.5645C24.4722 33.4518 23.8554 32.5294 23.415 31.8646C23.1948 31.5323 23.0184 31.264 22.8915 31.0682C22.7688 30.8789 22.6839 30.7445 22.6558 30.6908L22.6517 30.6829L22.6481 30.6748C22.5915 30.5448 22.5193 30.4292 22.4532 30.345C22.3969 30.4174 22.3258 30.5117 22.2409 30.6266C22.0154 30.932 21.6983 31.3755 21.3132 31.9248C20.5432 33.023 19.5042 34.5401 18.3872 36.2138Z" fill="#D3F500" stroke="white" stroke-width="0.5"/>
<path d="M51.2154 66.2626L51.2155 66.2629C51.4872 66.9945 51.9324 67.518 52.9301 68.0033C53.9473 68.4981 55.5185 68.9428 58.0241 69.5055C58.4116 69.5848 58.7663 69.7107 59.0546 69.8635C59.3367 70.013 59.5795 70.2012 59.7125 70.4183C59.8545 70.6442 59.9746 70.8911 59.886 71.1596C59.8441 71.2864 59.7634 71.3925 59.6679 71.487C59.5726 71.5814 59.4495 71.6768 59.3047 71.7792L59.3032 71.7802C59.021 71.9766 58.6006 72.0958 58.1329 72.1624C57.6575 72.23 57.1024 72.2471 56.5265 72.2184C55.3792 72.1613 54.115 71.9201 53.1996 71.5031C52.8663 71.3559 52.5505 71.235 52.3114 71.1606C52.1972 71.1251 52.107 71.1023 52.0436 71.0913C52.0342 71.1051 52.0237 71.1208 52.0122 71.1384C51.963 71.214 51.8997 71.3173 51.8265 71.4422C51.6802 71.6913 51.4982 72.0189 51.3159 72.3659C51.3158 72.366 51.3157 72.3662 51.3156 72.3663L50.7737 73.4071L51.1919 73.659C51.6644 73.9246 52.5904 74.1993 53.6711 74.4076C54.7457 74.6148 55.9394 74.75 56.9245 74.75C59.3014 74.75 61.1296 74.2426 62.287 73.3807C63.428 72.5311 63.9345 71.3265 63.6696 69.8471C63.5277 69.1554 63.1657 68.6043 62.4626 68.129C61.7467 67.645 60.6779 67.2409 59.1301 66.868L59.1291 66.8678C57.3546 66.4324 56.3425 66.1715 55.7771 65.9445C55.4953 65.8313 55.2875 65.713 55.1541 65.557C55.008 65.3862 54.9764 65.2015 54.9764 65.025C54.9764 64.7373 55.032 64.4748 55.1718 64.2511C55.3129 64.0254 55.5249 63.8627 55.7957 63.7503C56.3206 63.5326 57.1083 63.4879 58.1843 63.5504L58.1843 63.5504L58.1868 63.5506C58.7479 63.5887 59.3583 63.6648 59.894 63.7601C60.4229 63.8542 60.9015 63.9707 61.1859 64.0963L61.1859 64.0963L61.1911 64.0987L61.8782 64.4211L62.4473 63.311L62.4473 63.3109L62.4492 63.3075C62.62 62.9867 62.7438 62.7527 62.8279 62.5719C62.9139 62.3869 62.9454 62.2838 62.9516 62.2196C62.9559 62.1757 62.9492 62.1541 62.9229 62.1188C62.8837 62.066 62.8153 62.0054 62.6837 61.8955C62.4611 61.7269 61.9937 61.5555 61.3382 61.4092C60.6923 61.2651 59.9027 61.1531 59.0757 61.0835C57.4142 60.9436 55.6447 60.9778 54.6105 61.2418C51.8965 61.9689 50.4644 64.2498 51.2154 66.2626Z" fill="#D3F500" stroke="white" stroke-width="0.5"/>
<path d="M6.49809 63.8001L6.49818 63.8001L8.96044 63.8751L9.19898 63.8824L9.2028 64.121L9.28771 69.421L9.28772 69.4223L9.3417 74.5H11.217H13.0923L13.1462 69.4223L13.1463 69.421L13.2312 64.121L13.235 63.8827L13.4732 63.8751L15.8221 63.8001L15.8222 63.8001L17.9009 63.7329V62.5V61.25H11.0755H4.25V62.5V63.7324L6.49809 63.8001Z" fill="#D3F500" stroke="white" stroke-width="0.5"/>
<path d="M20.1552 62.4101L20.1552 62.4104L20.2267 63.6316L22.6298 63.7001L22.6298 63.7001L25.2336 63.7751L25.4764 63.7821V64.025V67.5C25.4764 69.0803 25.4628 69.9886 25.3819 70.5571C25.3409 70.8456 25.2804 71.0644 25.1856 71.2469C25.0891 71.4326 24.9655 71.564 24.8259 71.6874C24.3984 72.065 23.9114 72.2466 23.3578 72.2216C22.8149 72.1971 22.2286 71.975 21.588 71.5892L21.588 71.5892L21.5855 71.5876C21.3084 71.4163 21.033 71.2644 20.8158 71.1595C20.7066 71.1067 20.6165 71.068 20.5505 71.0445C20.5278 71.0364 20.5102 71.0309 20.4974 71.0274C20.4841 71.035 20.4653 71.0469 20.4406 71.0646C20.3762 71.1109 20.2921 71.1821 20.1929 71.2751C19.9954 71.4599 19.7565 71.7134 19.5247 71.9798C19.2929 72.246 19.0728 72.5201 18.912 72.745C18.8312 72.8579 18.7685 72.9542 18.7271 73.0285C18.7096 73.0599 18.6976 73.0844 18.69 73.1022C18.6961 73.1131 18.7072 73.1308 18.7274 73.1555C18.775 73.2137 18.852 73.286 18.9605 73.3691C19.1764 73.5345 19.4858 73.7194 19.844 73.8982C20.5634 74.2574 21.434 74.5697 22.0609 74.6521L22.0611 74.6522C22.8866 74.7615 23.8784 74.7561 24.8018 74.6637C25.727 74.5712 26.5591 74.3939 27.0768 74.1719C27.2859 74.0734 27.5681 73.8731 27.8604 73.6179C28.1504 73.3647 28.4355 73.0706 28.6506 72.7979L29.3645 71.8403L29.4481 66.4461L29.4482 66.4448L29.5561 61.25H24.8019H20.0861L20.1552 62.4101ZM20.4747 71.0225C20.4748 71.0225 20.4761 71.0228 20.4786 71.023C20.4759 71.0225 20.4747 71.0224 20.4747 71.0225ZM20.5161 71.0182C20.5162 71.0181 20.5153 71.0184 20.5135 71.0192C20.5152 71.0186 20.5161 71.0182 20.5161 71.0182Z" fill="#D3F500" stroke="white" stroke-width="0.5"/>
<path d="M47.5614 66.0458L47.642 61.25H45.7736H43.8726V65.05C43.8726 67.2604 43.8096 68.7144 43.6205 69.6943C43.4292 70.6854 43.0999 71.2367 42.5379 71.5871C41.9961 71.925 41.2228 72.045 40.4835 71.9995C39.7428 71.954 38.9823 71.739 38.4633 71.3501L38.4623 71.3493L37.6698 70.7493L37.573 70.676L37.5708 70.5544L37.4859 65.7794L37.4053 61.25H35.3868H33.4009V65.125C33.4009 69.9359 33.692 71.3157 34.8394 72.6357C35.5426 73.4395 36.1733 73.9261 37.0217 74.22C37.882 74.518 38.9856 74.625 40.6509 74.625C42.1808 74.625 43.1106 74.5676 43.8407 74.3596C44.5575 74.1553 45.0979 73.8009 45.8353 73.1619C46.2455 72.7996 46.5403 72.5212 46.763 72.2218C46.9814 71.9284 47.1354 71.6078 47.2467 71.1586C47.4751 70.2371 47.5187 68.8102 47.5613 66.0461L47.5614 66.0458Z" fill="#D3F500" stroke="white" stroke-width="0.5"/>
<path d="M65.1552 62.4101L65.1552 62.4104L65.2268 63.6324L67.3476 63.7001L67.3477 63.7001L69.6684 63.7751L69.9104 63.7829V64.025V69.375V74.5H71.9245H73.9413L73.9953 69.4223L73.9953 69.421L74.0802 64.121L74.084 63.8827L74.3222 63.8751L76.6712 63.8001L76.6713 63.8001L78.75 63.7329V62.5V61.25H71.9245H65.0861L65.1552 62.4101Z" fill="#D3F500" stroke="white" stroke-width="0.5"/>
</g>
</g>
<defs>
<filter id="filter0_d_12_14" x="0" y="0" width="83" height="83" filterUnits="userSpaceOnUse" color-interpolation-filters="sRGB">
<feFlood flood-opacity="0" result="BackgroundImageFix"/>
<feColorMatrix in="SourceAlpha" type="matrix" values="0 0 0 0 0 0 0 0 0 0 0 0 0 0 0 0 0 0 127 0" result="hardAlpha"/>
<feOffset dy="4"/>
<feGaussianBlur stdDeviation="2"/>
<feComposite in2="hardAlpha" operator="out"/>
<feColorMatrix type="matrix" values="0 0 0 0 0 0 0 0 0 0 0 0 0 0 0 0 0 0 0.25 0"/>
<feBlend mode="normal" in2="BackgroundImageFix" result="effect1_dropShadow_12_14"/>
<feBlend mode="normal" in="SourceGraphic" in2="effect1_dropShadow_12_14" result="shape"/>
</filter>
<filter id="filter1_d_12_14" x="0" y="0" width="83" height="83" filterUnits="userSpaceOnUse" color-interpolation-filters="sRGB">
<feFlood flood-opacity="0" result="BackgroundImageFix"/>
<feColorMatrix in="SourceAlpha" type="matrix" values="0 0 0 0 0 0 0 0 0 0 0 0 0 0 0 0 0 0 127 0" result="hardAlpha"/>
<feOffset dy="4"/>
<feGaussianBlur stdDeviation="2"/>
<feComposite in2="hardAlpha" operator="out"/>
<feColorMatrix type="matrix" values="0 0 0 0 0 0 0 0 0 0 0 0 0 0 0 0 0 0 0.25 0"/>
<feBlend mode="normal" in2="BackgroundImageFix" result="effect1_dropShadow_12_14"/>
<feBlend mode="normal" in="SourceGraphic" in2="effect1_dropShadow_12_14" result="shape"/>
</filter>
<clipPath id="clip0_12_14">
<rect width="75" height="75" fill="white" transform="translate(4)"/>
</clipPath>
</defs>
</svg>
