<svg width="45" height="45" viewBox="0 0 45 45" fill="none" xmlns="http://www.w3.org/2000/svg">
<rect width="45" height="45" fill="black"/>
<path d="M1.01887 0.135005C1.01887 0.225005 5.99434 7.60501 12.0736 16.56L23.1113 32.85H33.6396C42.0623 32.85 44.1679 32.805 44.117 32.655C44.066 32.49 23.1623 1.59 22.3472 0.495005L21.9906 4.79817e-06H11.5132C5.00943 4.79817e-06 1.01887 0.0600048 1.01887 0.135005Z" fill="#D3F500"/>
<path d="M24.1472 0.135007C24.2321 0.360007 34.183 15 34.234 14.955C34.4887 14.685 44.0491 0.450007 44.117 0.255007C44.1849 0.0150074 43.6245 7.37933e-06 34.1321 7.37933e-06C28.1377 7.37933e-06 24.1132 0.0600074 24.1472 0.135007Z" fill="#D3F500"/>
<path d="M8.50755 21.645C7.16604 23.64 5.89245 25.515 5.68868 25.8C4.94151 26.835 1.01887 32.685 1.01887 32.76C1.01887 32.82 5.53585 32.85 11.0377 32.85C16.5566 32.85 21.0566 32.82 21.0566 32.79C21.0566 32.76 18.9 29.58 16.2849 25.71C13.6528 21.855 11.4283 18.54 11.3264 18.345C11.2415 18.15 11.1057 18 11.0547 18C11.0038 18 9.84906 19.635 8.50755 21.645Z" fill="#D3F500"/>
<path d="M30.3283 36.6C28.6472 37.05 27.6962 38.49 28.1887 39.81C28.5453 40.77 29.3774 41.175 32.383 41.85C32.8245 41.94 33.1811 42.135 33.3 42.33C33.4698 42.6 33.4359 42.705 33.0962 42.945C32.5359 43.335 30.634 43.245 29.5811 42.765C29.1736 42.585 28.8 42.465 28.7491 42.51C28.6981 42.555 28.4774 42.93 28.2566 43.35L27.866 44.1L28.2396 44.325C28.8509 44.67 30.5491 45 31.7547 45C34.6415 45 36.2887 43.77 35.9491 41.88C35.7623 40.965 34.9811 40.425 33.1132 39.975C30.9736 39.45 30.7359 39.36 30.7359 39.015C30.7359 38.4 31.2113 38.205 32.5019 38.28C33.1642 38.325 33.9453 38.46 34.2509 38.595L34.7943 38.85L35.2019 38.055C35.6094 37.29 35.6094 37.275 35.3038 37.02C34.6585 36.525 31.6189 36.27 30.3283 36.6Z" fill="#D3F500"/>
<path d="M0 37.5V38.385L1.49434 38.43L2.9717 38.475L3.02264 41.655L3.0566 44.85H4.33019H5.60377L5.63774 41.655L5.68868 38.475L7.09811 38.43L8.49057 38.385V37.5V36.6H4.24528H0V37.5Z" fill="#D3F500"/>
<path d="M9.5434 37.455L9.59434 38.325L11.1736 38.37L12.7358 38.415V40.5C12.7358 42.405 12.7019 42.63 12.3962 42.9C11.9377 43.305 11.3774 43.275 10.6302 42.825C10.2906 42.615 9.95094 42.45 9.88302 42.465C9.69623 42.465 8.66038 43.665 8.66038 43.86C8.66038 44.16 10.0189 44.835 10.817 44.94C11.8358 45.075 13.2453 44.925 13.9075 44.64C14.1962 44.505 14.6377 44.115 14.9094 43.77L15.3679 43.155L15.4189 39.87L15.4868 36.6H12.4811H9.49245L9.5434 37.455Z" fill="#D3F500"/>
<path d="M17.4906 39.075C17.4906 41.955 17.6604 42.84 18.3906 43.68C19.2566 44.67 19.9868 44.925 21.9906 44.925C23.8245 44.925 24.3 44.79 25.2 44.01C26.1849 43.14 26.2358 42.93 26.2868 39.63L26.3377 36.6H25.0642H23.7736V39.03C23.7736 41.685 23.6208 42.465 23.0434 42.825C22.466 43.185 21.3283 43.11 20.7679 42.69L20.2925 42.33L20.2415 39.465L20.1906 36.6H18.8321H17.4906V39.075Z" fill="#D3F500"/>
<path d="M36.5434 37.455L36.5943 38.325L38.0038 38.37L39.3962 38.415V41.625V44.85H40.7547H42.1132L42.1472 41.655L42.1981 38.475L43.6075 38.43L45 38.385V37.5V36.6H40.7547H36.4925L36.5434 37.455Z" fill="#D3F500"/>
</svg>
