<svg width="35" height="35" viewBox="0 0 35 35" fill="none" xmlns="http://www.w3.org/2000/svg">
<path d="M34.9897 0H0.0102539C0.00459083 0 0 0.00459083 0 0.0102539V34.9897C0 34.9954 0.00459083 35 0.0102539 35H34.9897C34.9954 35 35 34.9954 35 34.9897V0.0102539C35 0.00459083 34.9954 0 34.9897 0Z" fill="#5281B8"/>
<path d="M18.7304 24.8144C19.0722 24.7461 19.6875 24.6094 19.6875 23.7891C19.6875 23.7891 19.6191 21.7383 20.5761 21.4648C21.5332 21.1914 22.7636 23.4473 24.0625 24.3359C25.0195 24.9512 25.7715 24.8828 25.7715 24.8828L29.2578 24.8144C29.2578 24.8144 31.0351 24.6777 30.2148 23.2422C30.1465 23.1055 29.5996 22.2168 27.5488 20.3711C25.4297 18.3203 25.7715 18.6621 28.3008 15.1758C29.873 13.0566 30.5566 11.7578 30.3515 11.2793C30.0781 10.8008 28.9844 10.8691 28.9844 10.8691H25.0879C24.6777 10.8691 24.4726 10.9375 24.2676 11.2793C24.2676 11.2793 23.6523 12.9883 22.832 14.3555C21.123 17.2949 20.4394 17.4316 20.0976 17.2266C19.4824 16.8848 19.6191 15.5859 19.6191 14.6973C19.6191 11.6211 20.0976 10.5273 18.7304 10.2539C17.8418 10.1172 14.6972 9.98046 13.7402 10.459C13.2617 10.7324 12.9883 11.2109 13.1933 11.2793C13.3984 11.2793 14.0136 11.3476 14.3554 11.7578C14.9023 12.6465 14.9707 16.8848 14.2187 17.2949C13.1933 18.0469 10.5957 13.0566 9.98045 11.416C9.84373 11.0059 9.63865 10.9375 9.16013 10.8008H5.40037C4.99021 10.8008 4.37498 10.8691 4.64842 11.6894C6.49412 15.5176 10.3222 24.8828 17.2265 24.8144H18.7304Z" fill="white"/>
</svg>
